<svg width="353" height="246" viewBox="0 0 353 246" fill="none" xmlns="http://www.w3.org/2000/svg">
<rect x="0.855957" y="60.5" width="333" height="144" rx="72" fill="#FFB629"/>
<mask id="mask0_75_3014" style="mask-type:alpha" maskUnits="userSpaceOnUse" x="0" y="60" width="334" height="145">
<rect x="0.855957" y="60.5" width="333" height="144" rx="72" fill="#FFB629"/>
</mask>
<g mask="url(#mask0_75_3014)">
<path fill-rule="evenodd" clip-rule="evenodd" d="M233.415 114.657C232.91 137.494 230.622 153.706 226.551 163.295C220.445 177.677 224.759 172.041 164.357 174.5C160.73 175.429 153.857 176.5 148.856 181C145.634 183.899 137.857 192 137.857 192C137.857 192 133.599 197.821 134.037 198.65C134.254 199.063 138.631 199.367 139.08 199.491C139.713 199.667 148.593 186.144 149.857 186.348C150.794 186.5 139.942 200.503 141.357 200.122C142.628 199.78 144.114 199.128 145.857 197.998C147.754 196.767 151.773 187.695 153.857 187C158.857 185 149.857 198.5 154.357 197.5C161.857 189.65 162.256 186.418 164.357 186C172.293 186.14 221.222 197.28 237.886 185.878C254.55 174.477 257.582 134.595 262.163 128.228C265.218 123.984 261.125 111.83 249.886 91.7673L233.415 114.657Z" fill="#CD7448"/>
<path fill-rule="evenodd" clip-rule="evenodd" d="M170.119 188.213C171.333 180.703 171.225 175.035 169.797 171.21C200.521 171.008 216.874 169.525 218.855 166.761C221.572 162.971 230.712 115.523 236.051 101.892C236.271 100.306 242.176 107.97 242.267 106.594L261.709 138.97C256.386 156.094 252.861 166.829 251.136 171.175C248.548 177.694 240.018 192.505 221.704 191.875C209.495 191.455 192.3 190.235 170.119 188.213Z" fill="#D6DEF9"/>
<mask id="mask1_75_3014" style="mask-type:alpha" maskUnits="userSpaceOnUse" x="218" y="89" width="99" height="155">
<path d="M225.718 201.664C227.987 183.597 227.987 169.198 225.718 161.294C222.316 149.438 213.81 139.276 222.316 125.726C230.822 112.177 232.523 96.9332 241.029 93.5458C249.535 90.1584 285.261 86.771 292.066 93.5458C296.602 98.0624 300.572 105.966 303.974 117.258L309.078 185.006C317.017 215.492 318.151 234.123 312.48 240.898C303.974 251.06 300.572 223.961 263.145 208.717C255.206 205.33 242.73 203.922 225.718 201.664Z" fill="white"/>
</mask>
<g mask="url(#mask1_75_3014)">
<path d="M222.104 200.655C225.229 182.716 225.846 169.745 223.957 161.743C221.122 149.74 213.108 139.188 222.249 126.055C231.39 112.922 233.394 96.5588 242.052 93.5763C250.709 90.5939 285.862 87.3667 292.337 94.4549C296.654 99.1803 301.357 110.008 304.219 121.448L303.13 144.322L306.095 189.36C312.575 220.187 312.822 238.85 306.836 245.35C297.856 255.1 295.746 227.871 259.086 210.879C251.317 207.121 238.99 203.713 222.104 200.655Z" fill="#E8EDFF"/>
<path fill-rule="evenodd" clip-rule="evenodd" d="M278.456 89.9597C275.054 117.672 265.493 131.529 249.773 131.529C226.193 131.529 231.722 119.124 234.674 113.308C236.643 109.43 238.807 102.529 241.168 92.6038C249.28 90.0148 255.472 88.5688 259.743 88.266C264.014 87.9631 270.252 88.5277 278.456 89.9597Z" fill="#CD7448"/>
</g>
<path d="M61.4344 205.234H210.637C214.936 205.234 218.421 201.764 218.421 197.484H53.6499C53.6499 201.764 57.1351 205.234 61.4344 205.234Z" fill="#D3DCEF"/>
<path d="M53.0586 197.191H148.067L151.722 206.588H56.7128L53.0586 197.191Z" fill="#B1C0E2"/>
<path d="M48.0281 125.148H126.972C131.326 125.148 134.856 128.662 134.856 132.997L148.361 197.483H53.6501L40.1445 132.997C40.1445 128.662 43.6741 125.148 48.0281 125.148Z" fill="#D3DCEF"/>
<path d="M127.891 192.002L127.891 177.308L113.856 177.308L113.856 189.002C113.856 190.659 115.199 192.002 116.856 192.002L127.891 192.002Z" fill="white"/>
<path d="M129.444 189.783L135.475 183.712C136.394 182.788 136.394 181.288 135.475 180.364C134.559 179.442 133.074 179.442 132.158 180.364L126.127 186.435C125.209 187.359 125.209 188.859 126.127 189.783C127.043 190.706 128.528 190.706 129.444 189.783ZM136.185 184.417L130.154 190.488C128.846 191.804 126.725 191.804 125.417 190.488C124.112 189.174 124.112 187.044 125.417 185.73L131.449 179.659C132.756 178.343 134.877 178.343 136.185 179.659C137.49 180.973 137.49 183.103 136.185 184.417ZM124.627 184.225L133.753 175.04C134.671 174.116 134.671 172.616 133.753 171.692C132.836 170.77 131.352 170.77 130.435 171.692L121.31 180.877C120.392 181.801 120.392 183.301 121.31 184.225C122.226 185.148 123.711 185.148 124.627 184.225ZM134.462 175.745L125.337 184.93C124.029 186.246 121.908 186.246 120.601 184.93C119.295 183.616 119.295 181.487 120.601 180.172L129.726 170.987C131.033 169.671 133.155 169.671 134.462 170.987C135.768 172.301 135.768 174.431 134.462 175.745ZM119.36 179.111L123.374 175.072C124.292 174.148 124.292 172.648 123.374 171.724C122.457 170.801 120.973 170.801 120.056 171.724L116.043 175.763C115.125 176.687 115.125 178.187 116.043 179.111C116.96 180.034 118.444 180.034 119.36 179.111ZM124.083 175.777L120.07 179.816C118.762 181.132 116.641 181.132 115.334 179.816C114.028 178.502 114.028 176.372 115.334 175.058L119.347 171.019C120.654 169.703 122.775 169.703 124.083 171.019C125.389 172.333 125.389 174.463 124.083 175.777ZM114.354 185.854C114.354 184.834 115.584 184.254 116.333 185.026L120.655 189.485C121.353 190.205 120.891 191.488 119.832 191.488L116.166 191.488C115.152 191.488 114.354 190.642 114.354 189.635L114.354 185.854Z" fill="#0A1551" stroke="white"/>
<path d="M124.083 175.777L120.07 179.816C118.762 181.132 116.641 181.132 115.334 179.816C114.028 178.502 114.028 176.373 115.334 175.058L119.347 171.019C120.654 169.703 122.775 169.703 124.083 171.019C125.388 172.333 125.388 174.463 124.083 175.777Z" fill="#FFB629" stroke="white"/>
<path d="M125.417 185.729L125.418 185.729L132.176 178.931C133.483 177.615 135.604 177.615 136.912 178.931C138.218 180.246 138.218 182.375 136.912 183.689L136.912 183.689L130.154 190.487C130.154 190.487 130.154 190.487 130.153 190.487C128.846 191.803 126.725 191.803 125.417 190.487C124.112 189.173 124.112 187.043 125.417 185.729Z" fill="#0099FF" stroke="white"/>
<path d="M134.462 175.745L125.337 184.93C124.029 186.246 121.908 186.246 120.601 184.93C119.295 183.616 119.295 181.486 120.601 180.172L129.726 170.987C131.033 169.671 133.155 169.671 134.462 170.987C135.768 172.301 135.768 174.431 134.462 175.745Z" fill="#FF6100" stroke="white"/>
<path fill-rule="evenodd" clip-rule="evenodd" d="M73.4542 130.49C72.9951 130.091 72.376 129.978 71.7991 130.187C71.6038 130.258 71.4143 130.366 71.236 130.507C71.1332 130.59 71.0304 130.673 70.9281 130.755C70.6102 131.013 70.3095 131.257 70.0042 131.457C69.9067 131.52 69.8137 131.594 69.5064 131.841C69.2887 132.017 68.7557 132.445 68.3654 132.732C66.675 132.26 64.8533 132.154 63.0225 132.419C62.9503 132.346 62.8771 132.276 62.8035 132.209C62.54 131.969 61.7369 131.237 60.7829 131.582C60.5777 131.656 60.3974 131.771 60.249 131.917C59.851 131.682 59.3795 131.63 58.9436 131.788C57.9433 132.149 57.786 133.309 57.7272 133.746C57.7015 133.933 57.6832 134.134 57.6714 134.334C56.0759 135.3 54.7311 136.55 53.7268 138.003C53.2574 138.03 52.637 138.041 52.3437 138.046C51.9491 138.053 51.83 138.056 51.7151 138.068C51.3514 138.11 50.9641 138.116 50.5545 138.122C50.4215 138.124 50.2884 138.126 50.1556 138.128C49.9274 138.134 49.7124 138.172 49.5171 138.242C48.9442 138.45 48.5439 138.928 48.4469 139.52C48.3099 140.357 48.75 141.219 50.0165 142.597C50.643 143.278 51.3181 143.913 51.8495 144.375C51.9046 145.209 52.0772 146.025 52.3646 146.809C54.3007 152.093 60.9703 154.55 67.2314 152.286C73.487 150.025 77.0071 143.888 75.0779 138.607L75.0719 138.591C74.7989 137.848 74.4265 137.148 73.9613 136.5C74.0772 135.785 74.1872 134.848 74.2302 133.935C74.3208 132.019 74.1033 131.053 73.4542 130.49Z" fill="white"/>
<path fill-rule="evenodd" clip-rule="evenodd" d="M53.3691 143.844C52.0682 142.848 48.7078 139.572 50.1899 139.539C50.7544 139.526 51.3161 139.535 51.8778 139.47C52.0949 139.445 54.5857 139.468 54.7301 139.257" fill="#ED9321"/>
<path fill-rule="evenodd" clip-rule="evenodd" d="M53.5365 143.421C52.5416 142.659 49.9724 140.154 51.1061 140.129C51.538 140.119 51.9671 140.126 52.3967 140.076C52.5624 140.057 54.4666 140.075 54.5777 139.913" fill="#DC692D"/>
<path fill-rule="evenodd" clip-rule="evenodd" d="M72.4733 136.917C72.8252 135.323 73.28 130.668 72.122 131.589C71.6818 131.94 71.2572 132.305 70.7848 132.614C70.6023 132.733 68.7096 134.342 68.462 134.273" fill="#ED9321"/>
<path fill-rule="evenodd" clip-rule="evenodd" d="M72.0697 136.7C72.3385 135.481 72.6864 131.922 71.8011 132.626C71.4639 132.895 71.1398 133.174 70.7784 133.41C70.6393 133.501 69.1921 134.731 69.0023 134.678" fill="#DC692D"/>
<path fill-rule="evenodd" clip-rule="evenodd" d="M52.8452 142.195C53.077 142.164 53.2879 142.136 53.4766 142.101C53.3256 142.812 53.279 143.532 53.3469 144.244L72.6237 137.273C72.2862 136.786 71.8854 136.346 71.4322 135.954C71.4522 135.863 71.4733 135.78 71.4873 135.72C71.5403 135.493 71.4571 135.368 71.235 135.575C71.1863 135.621 71.1436 135.66 71.1062 135.688C71.0534 135.648 70.9999 135.608 70.9459 135.568C70.9453 135.51 70.9489 135.435 70.9582 135.338C71.0084 134.802 70.9474 134.639 70.9474 134.639C70.9474 134.639 70.9346 133.989 70.651 134.751C70.5842 134.931 70.5229 135.096 70.473 135.248C68.8523 134.233 66.7816 133.717 64.5728 133.811C63.9125 133.79 62.487 133.929 62.487 133.929C62.1859 133.491 61.2335 132.543 61.1965 133.021C61.182 133.203 61.1746 133.385 61.1438 133.566C61.1324 133.632 61.0983 134.365 61.0341 134.472C61.0169 134.477 61.0003 134.483 60.9837 134.488C60.7864 134.372 60.191 133.731 60.1264 133.676C59.9402 133.519 59.7774 133.342 59.6073 133.169C59.1595 132.715 59.0054 134.481 59.0751 135.179C59.0751 135.179 58.5645 135.527 58.0048 135.933C56.0843 137.191 54.6579 138.882 53.909 140.706C53.7139 140.784 53.4866 140.837 53.3553 140.871C53.1044 140.938 53.0258 141.084 53.3458 141.194C53.6663 141.303 53.8138 141.357 53.2599 141.588C52.7062 141.819 52.5779 141.963 52.5779 141.963C52.5779 141.963 51.9463 142.316 52.8452 142.195Z" fill="#F5A51C"/>
<path fill-rule="evenodd" clip-rule="evenodd" d="M73.7612 139.063C72.0835 134.5 66.2333 132.426 60.6897 134.43C55.143 136.435 52.0036 141.764 53.6777 146.333C55.3517 150.901 61.2053 152.979 66.752 150.974C72.2957 148.97 75.4346 143.645 73.7666 139.078L73.7612 139.063Z" fill="#F5A51C"/>
<path fill-rule="evenodd" clip-rule="evenodd" d="M61.3962 144.479C61.7493 145.442 63.1886 145.808 64.6113 145.294C66.0335 144.78 66.8993 143.58 66.5462 142.617C66.193 141.653 64.7538 141.287 63.3316 141.801C61.9089 142.316 61.0429 143.515 61.3962 144.479Z" fill="#F7C847"/>
<path fill-rule="evenodd" clip-rule="evenodd" d="M65.2135 142.063C65.2135 142.063 64.4243 141.868 64.2582 141.876C64.0913 141.882 63.902 141.526 63.8155 141.379C63.7283 141.232 63.6213 141.208 63.6087 141.43C63.5965 141.65 63.5884 141.753 63.3431 141.444C63.098 141.134 63.2277 141.721 63.2277 141.721C63.2277 141.721 62.6836 141.296 62.9208 141.843C63.1573 142.39 63.2782 142.199 63.6587 142.173C64.0392 142.147 64.9867 142.235 65.169 142.225C65.3512 142.214 65.3832 142.205 65.2135 142.063Z" fill="#F7C847"/>
<path fill-rule="evenodd" clip-rule="evenodd" d="M66.14 140.405C66.4912 141.364 67.554 141.859 68.5139 141.512C69.4739 141.165 69.9674 140.107 69.6162 139.149C69.265 138.19 68.2024 137.695 67.2425 138.043C66.2825 138.39 65.7889 139.447 66.14 140.405Z" fill="white"/>
<path fill-rule="evenodd" clip-rule="evenodd" d="M69.2855 139.301C69.5678 140.071 69.1705 140.922 68.3993 141.201C67.6277 141.48 66.7726 141.082 66.4903 140.311C66.2081 139.541 66.6052 138.69 67.3768 138.411C68.148 138.132 69.0032 138.531 69.2855 139.301Z" fill="#221F1F"/>
<path fill-rule="evenodd" clip-rule="evenodd" d="M68.5164 138.704C68.7184 138.654 68.9244 138.777 68.9757 138.978C69.0261 139.18 68.9034 139.385 68.7015 139.435C68.4995 139.486 68.2942 139.363 68.2432 139.162C68.1915 138.959 68.3144 138.755 68.5164 138.704Z" fill="white"/>
<path fill-rule="evenodd" clip-rule="evenodd" d="M67.9607 140.205C68.1711 140.153 68.386 140.281 68.4398 140.491C68.4926 140.702 68.3651 140.915 68.1543 140.968C67.9434 141.02 67.7295 140.892 67.6757 140.682C67.6222 140.471 67.7498 140.258 67.9607 140.205Z" fill="white"/>
<path fill-rule="evenodd" clip-rule="evenodd" d="M66.9477 139.081C67.2276 139.013 67.5148 139.19 67.5899 139.477C67.664 139.764 67.4975 140.052 67.2178 140.12C66.9379 140.187 66.6505 140.009 66.5761 139.723C66.5013 139.436 66.6673 139.148 66.9477 139.081Z" fill="white"/>
<path fill-rule="evenodd" clip-rule="evenodd" d="M56.9677 143.723C57.3188 144.681 58.3816 145.177 59.3416 144.83C60.301 144.483 60.795 143.425 60.4439 142.466C60.0927 141.508 59.0296 141.013 58.0701 141.36C57.1102 141.707 56.6165 142.765 56.9677 143.723Z" fill="white"/>
<path fill-rule="evenodd" clip-rule="evenodd" d="M60.1248 142.621C60.407 143.391 60.0093 144.242 59.2388 144.521C58.4672 144.8 57.6123 144.402 57.3301 143.631C57.0479 142.861 57.4449 142.01 58.2164 141.731C58.987 141.452 59.8426 141.851 60.1248 142.621Z" fill="#221F1F"/>
<path fill-rule="evenodd" clip-rule="evenodd" d="M59.361 142.023C59.5629 141.973 59.7689 142.096 59.8202 142.297C59.8707 142.499 59.7487 142.704 59.546 142.755C59.3448 142.805 59.1388 142.682 59.0886 142.481C59.0368 142.278 59.159 142.074 59.361 142.023Z" fill="white"/>
<path fill-rule="evenodd" clip-rule="evenodd" d="M58.805 143.522C59.0157 143.47 59.2302 143.598 59.2835 143.808C59.3368 144.019 59.2091 144.232 58.998 144.285C58.7874 144.337 58.5728 144.209 58.5195 143.999C58.466 143.788 58.5934 143.575 58.805 143.522Z" fill="white"/>
<path fill-rule="evenodd" clip-rule="evenodd" d="M57.7801 142.402C58.0596 142.334 58.3473 142.511 58.4224 142.798C58.4965 143.085 58.33 143.372 58.0497 143.441C57.7703 143.508 57.4834 143.33 57.408 143.044C57.3337 142.757 57.4997 142.469 57.7801 142.402Z" fill="white"/>
<path fill-rule="evenodd" clip-rule="evenodd" d="M68.4568 142.979C68.5979 143.365 69.4201 143.421 70.2928 143.106C71.166 142.79 71.7593 142.221 71.6182 141.836C71.4771 141.451 70.6548 141.394 69.7816 141.71C68.9089 142.026 68.3157 142.594 68.4568 142.979Z" fill="#F5A51C"/>
<path fill-rule="evenodd" clip-rule="evenodd" d="M56.634 147.222C56.7751 147.607 57.5969 147.664 58.4701 147.348C59.3428 147.032 59.9365 146.464 59.7954 146.079C59.6545 145.694 58.8316 145.637 57.9589 145.952C57.0857 146.268 56.4931 146.837 56.634 147.222Z" fill="#F5A51C"/>
<path fill-rule="evenodd" clip-rule="evenodd" d="M63.8948 143.343L64.1627 144.079Z" fill="#F7C847"/>
<path fill-rule="evenodd" clip-rule="evenodd" d="M63.8419 143.38C63.9139 143.576 63.9859 143.773 64.0572 143.97C64.0934 144.068 64.2855 143.999 64.2493 143.9C64.1773 143.704 64.1054 143.507 64.0341 143.31C63.9979 143.211 63.8055 143.28 63.8419 143.38Z" fill="#F3A41D"/>
<path fill-rule="evenodd" clip-rule="evenodd" d="M64.1473 142.835C64.1427 142.866 64.138 142.896 64.1316 142.938C64.2538 142.887 64.3199 142.808 64.3436 142.702C64.3656 142.605 64.3156 142.536 64.2308 142.489C64.0906 142.412 63.9309 142.4 63.7688 142.437C63.5257 142.491 63.3166 142.608 63.1575 142.794C63.0768 142.89 63.0425 142.992 63.1066 143.101C63.1623 143.196 63.2773 143.232 63.4054 143.189C63.3764 143.167 63.35 143.147 63.3234 143.127C63.3274 143.123 63.3314 143.118 63.3349 143.114C63.3935 143.146 63.4524 143.177 63.5113 143.208C63.6523 143.282 63.7929 143.281 63.9384 143.188C64.0273 143.131 64.0781 143.057 64.0936 142.963C64.1009 142.918 64.1154 142.874 64.1266 142.829C64.1335 142.831 64.1406 142.833 64.1473 142.835Z" fill="#221F1F"/>
<path fill-rule="evenodd" clip-rule="evenodd" d="M62.3745 144.703C62.6695 145.509 63.7233 145.868 64.7272 145.505C65.7315 145.142 66.306 144.194 66.011 143.388L62.3745 144.703Z" fill="#8B1A1C"/>
<path fill-rule="evenodd" clip-rule="evenodd" d="M65.5643 144.992C65.3501 145.244 65.0607 145.44 64.7267 145.561C64.3628 145.693 63.9838 145.703 63.6359 145.633C63.7562 145.345 64.0117 145.019 64.4406 144.829C64.8603 144.643 65.307 144.835 65.5643 144.992Z" fill="#CD6EA8"/>
<path fill-rule="evenodd" clip-rule="evenodd" d="M54.6017 145.763C54.8318 145.746 55.0397 145.73 55.2145 145.705C56.6738 149.564 61.608 151.325 66.275 149.638C70.9664 147.942 73.611 143.404 72.1811 139.502C72.1308 139.365 72.0748 139.23 72.0164 139.099C72.0145 138.993 72.0019 138.91 71.9709 138.867C71.8207 138.658 72.323 138.514 72.5228 138.444C72.7214 138.373 72.6782 138.247 72.2598 138.175C71.8417 138.105 71.6452 138.069 72.015 137.843C72.3849 137.618 72.3932 137.49 72.3932 137.49C72.3932 137.49 72.7397 137.159 71.926 137.314C71.547 137.387 71.2281 137.448 71.0303 137.541C69.0785 135.26 65.561 134.295 62.0507 135.212C61.895 135.168 61.8342 134.771 61.7976 134.595C61.7541 134.389 61.6226 134.414 61.496 134.817C61.3692 135.22 61.3068 135.409 61.1332 135.012C60.9589 134.615 60.833 134.588 60.833 134.588C60.833 134.588 60.551 134.199 60.5951 135.025C60.6089 135.275 60.6211 135.499 60.6461 135.682C57.0448 137.166 54.7643 140.355 54.8046 143.53C54.7302 143.817 54.676 144.112 54.734 144.217C54.8592 144.44 54.3438 144.527 54.1378 144.574C53.9318 144.622 53.9604 144.752 54.3681 144.87C54.7755 144.987 54.9667 145.046 54.5736 145.228C54.1807 145.41 54.1575 145.536 54.1575 145.536C54.1575 145.536 53.7754 145.825 54.6017 145.763Z" fill="#F7C947"/>
<path fill-rule="evenodd" clip-rule="evenodd" d="M60.5035 142.463C60.8474 143.401 60.3643 144.437 59.4243 144.777C58.4847 145.117 57.4439 144.632 57.1 143.693C56.7562 142.755 57.2397 141.719 58.1793 141.379C59.1193 141.04 60.1596 141.525 60.5035 142.463Z" fill="white"/>
<path fill-rule="evenodd" clip-rule="evenodd" d="M57.4477 143.602C57.7241 144.356 58.5608 144.746 59.316 144.473C60.0713 144.2 60.4605 143.367 60.1841 142.613C59.9076 141.858 59.0704 141.469 58.3152 141.742C57.56 142.015 57.1712 142.848 57.4477 143.602Z" fill="#231F20"/>
<path fill-rule="evenodd" clip-rule="evenodd" d="M57.8688 142.591C57.6855 142.679 57.6089 142.9 57.6983 143.085C57.7876 143.267 58.0095 143.344 58.1927 143.256C58.3764 143.167 58.4526 142.947 58.3635 142.763C58.2733 142.579 58.052 142.503 57.8688 142.591Z" fill="white"/>
<path fill-rule="evenodd" clip-rule="evenodd" d="M59.0492 143.441C58.8541 143.535 58.7727 143.77 58.8675 143.965C58.9633 144.161 59.1992 144.243 59.3949 144.148C59.59 144.054 59.6714 143.819 59.5761 143.624C59.4805 143.428 59.2448 143.346 59.0492 143.441Z" fill="white"/>
<path fill-rule="evenodd" clip-rule="evenodd" d="M59.0564 141.976C58.8039 142.1 58.7003 142.413 58.8262 142.675C58.9519 142.936 59.259 143.047 59.5121 142.924C59.7644 142.799 59.8676 142.487 59.7418 142.225C59.6159 141.963 59.3093 141.852 59.0564 141.976Z" fill="white"/>
<path fill-rule="evenodd" clip-rule="evenodd" d="M69.4723 139.211C69.8161 140.15 69.3331 141.185 68.393 141.525C67.4535 141.865 66.4127 141.38 66.0688 140.442C65.7249 139.503 66.2085 138.467 67.148 138.128C68.0881 137.788 69.1284 138.273 69.4723 139.211Z" fill="white"/>
<path fill-rule="evenodd" clip-rule="evenodd" d="M66.4164 140.356C66.6929 141.11 67.53 141.5 68.2853 141.227C69.04 140.954 69.4292 140.121 69.1528 139.367C68.8764 138.612 68.0392 138.223 67.2845 138.496C66.5292 138.769 66.14 139.602 66.4164 140.356Z" fill="#231F20"/>
<path fill-rule="evenodd" clip-rule="evenodd" d="M66.8373 139.347C66.6542 139.435 66.5776 139.656 66.6677 139.84C66.7562 140.022 66.9781 140.099 67.162 140.011C67.345 139.922 67.4218 139.702 67.332 139.518C67.2419 139.334 67.0213 139.258 66.8373 139.347Z" fill="white"/>
<path fill-rule="evenodd" clip-rule="evenodd" d="M68.0199 140.19C67.8248 140.284 67.7433 140.519 67.8381 140.714C67.934 140.909 68.1699 140.991 68.3656 140.897C68.5607 140.803 68.6416 140.568 68.5468 140.372C68.4512 140.176 68.2155 140.095 68.0199 140.19Z" fill="white"/>
<path fill-rule="evenodd" clip-rule="evenodd" d="M68.0304 138.723C67.778 138.846 67.6743 139.159 67.7997 139.421C67.9259 139.683 68.233 139.794 68.4861 139.671C68.7389 139.546 68.8416 139.233 68.7159 138.972C68.59 138.71 68.2834 138.598 68.0304 138.723Z" fill="white"/>
<path fill-rule="evenodd" clip-rule="evenodd" d="M60.3853 145.849C60.5237 146.227 59.9428 146.783 59.0881 147.092C58.2333 147.401 57.4286 147.346 57.2902 146.968C57.152 146.591 57.7328 146.035 58.5876 145.726C59.4424 145.417 60.2471 145.472 60.3853 145.849Z" fill="#F7A61B"/>
<path fill-rule="evenodd" clip-rule="evenodd" d="M71.9327 141.622C72.071 142 71.4897 142.556 70.6354 142.865C69.7807 143.174 68.9759 143.119 68.8375 142.741C68.6993 142.364 69.2802 141.808 70.135 141.499C70.9892 141.19 71.7945 141.245 71.9327 141.622Z" fill="#F7A61B"/>
<path fill-rule="evenodd" clip-rule="evenodd" d="M65.79 143.378C65.9859 143.913 65.4701 144.59 64.6379 144.891C63.8062 145.192 62.9727 145.002 62.7769 144.468" fill="#F7C947"/>
<path fill-rule="evenodd" clip-rule="evenodd" d="M65.6081 143.44C65.6917 143.684 65.5815 143.934 65.4294 144.126C65.2097 144.402 64.897 144.595 64.568 144.714C64.239 144.832 63.8749 144.885 63.5288 144.814C63.2881 144.764 63.041 144.642 62.9479 144.402C62.8606 144.178 62.5078 144.304 62.5955 144.529C62.8226 145.114 63.5277 145.267 64.0897 145.206C64.7642 145.134 65.4739 144.786 65.8359 144.196C65.9992 143.93 66.0639 143.613 65.9605 143.313C65.8815 143.085 65.5296 143.212 65.6081 143.44Z" fill="#F5A51C"/>
<path fill-rule="evenodd" clip-rule="evenodd" d="M63.5362 143.046C63.5588 143.067 63.5822 143.087 63.614 143.115C63.4895 143.153 63.3901 143.134 63.3041 143.068C63.2259 143.007 63.2195 142.923 63.2529 142.834C63.3073 142.685 63.4189 142.575 63.5637 142.501C63.7808 142.389 64.0114 142.347 64.2495 142.39C64.3717 142.412 64.4625 142.469 64.4841 142.593C64.5034 142.701 64.4411 142.802 64.3173 142.849C64.3248 142.814 64.3318 142.783 64.3392 142.75C64.3332 142.749 64.3277 142.748 64.3219 142.748C64.2985 142.809 64.2755 142.871 64.2506 142.932C64.1923 143.077 64.0857 143.164 63.9183 143.185C63.8151 143.198 63.7306 143.173 63.6579 143.11C63.6237 143.08 63.5848 143.056 63.5478 143.029C63.5443 143.034 63.5402 143.04 63.5362 143.046Z" fill="#231F20"/>
<path fill-rule="evenodd" clip-rule="evenodd" d="M64.0679 143.896C64.1507 144.122 64.6738 143.934 64.5908 143.707C64.5316 143.545 64.4724 143.384 64.4132 143.222C64.3303 142.996 63.8074 143.185 63.8903 143.411L64.0679 143.896Z" fill="#F5A51C"/>
<path d="M95.4543 146.689V147.837C95.4543 150.057 93.7117 151.856 91.562 151.856V150.708C91.562 148.488 93.3047 146.689 95.4543 146.689Z" fill="#FDF8DC"/>
<path d="M95.4543 146.689V147.837C95.4543 150.057 93.7117 151.856 91.562 151.856V150.708C91.562 148.488 93.3047 146.689 95.4543 146.689Z" fill="white"/>
<path d="M90.9055 172.52C96.2795 172.52 100.636 168.182 100.636 162.832C100.636 157.482 96.2795 153.145 90.9055 153.145C85.5314 153.145 81.1748 157.482 81.1748 162.832C81.1748 168.182 85.5314 172.52 90.9055 172.52Z" fill="#FDF8DC"/>
<path d="M90.9055 172.52C96.2795 172.52 100.636 168.182 100.636 162.832C100.636 157.482 96.2795 153.145 90.9055 153.145C85.5314 153.145 81.1748 157.482 81.1748 162.832C81.1748 168.182 85.5314 172.52 90.9055 172.52Z" fill="white"/>
<rect x="4.6582" y="204.5" width="353.599" height="63.369" fill="#FCF1E1"/>
</g>
<mask id="mask2_75_3014" style="mask-type:alpha" maskUnits="userSpaceOnUse" x="125" y="0" width="185" height="124">
<path d="M125.856 0H309.856V123.5H125.856V0Z" fill="#C4C4C4"/>
</mask>
<g mask="url(#mask2_75_3014)">
<mask id="mask3_75_3014" style="mask-type:alpha" maskUnits="userSpaceOnUse" x="218" y="89" width="99" height="155">
<path d="M225.718 201.664C227.987 183.598 227.987 169.198 225.718 161.294C222.316 149.438 213.81 139.276 222.316 125.726C230.822 112.177 232.523 96.9335 241.029 93.5461C249.535 90.1587 285.261 86.7713 292.066 93.5461C296.602 98.0626 300.572 105.967 303.974 117.258L309.078 185.006C317.017 215.493 318.151 234.123 312.48 240.898C303.974 251.06 300.572 223.961 263.145 208.718C255.206 205.33 242.73 203.922 225.718 201.664Z" fill="white"/>
</mask>
<g mask="url(#mask3_75_3014)">
<path d="M225.719 201.661C227.987 183.595 227.987 170.61 225.719 162.706C222.316 150.85 213.81 140.688 222.316 127.138C230.822 113.588 232.046 97.1491 240.552 93.7617C249.058 90.3743 284.018 85.4927 290.823 92.2675C295.359 96.784 300.572 107.378 303.975 118.669V141.569L309.078 186.417C317.017 216.904 318.152 235.535 312.481 242.31C303.975 252.472 300.572 225.373 263.146 210.129C255.207 206.742 242.731 203.919 225.719 201.661Z" fill="#E8EDFF"/>
<path fill-rule="evenodd" clip-rule="evenodd" d="M278.456 89.9599C275.054 117.673 265.493 131.529 249.773 131.529C226.193 131.529 231.722 119.125 234.674 113.308C236.643 109.431 238.807 102.529 241.168 92.604C249.28 90.015 255.472 88.5691 259.743 88.2662C264.014 87.9634 270.252 88.528 278.456 89.9599Z" fill="#CD7448"/>
</g>
<path d="M265.444 62.051C264.625 84.0423 274.641 90.8259 277.846 90.591C281.051 90.3562 270.009 104.854 249.101 128.345C240.325 114.612 236.936 105.776 238.934 101.839C241.931 95.9321 247.004 96.4814 244.035 77.0183C242.085 64.2331 259.291 63.9106 271.28 60.7233C265.444 62.051 255.815 63.1208 265.444 62.051Z" fill="#CD7448"/>
<path fill-rule="evenodd" clip-rule="evenodd" d="M224.665 30.7926C221.17 55.4959 219.497 58.5131 217.865 64.0175C217.46 65.3821 217.867 66.8644 218.946 67.7944C227.74 75.3707 238.734 76.9925 251.927 72.6596C265.982 68.0442 265.463 63.0634 252.906 23.3448L224.665 30.7926Z" fill="#0A1551"/>
<path opacity="0.677232" fill-rule="evenodd" clip-rule="evenodd" d="M244.358 69.1769C245.875 81.3162 244.986 88.0194 244.865 89.0916C244.683 90.7 274.896 88.9036 266.144 63.2538C257.391 37.6041 255.032 66.46 244.358 69.1769Z" fill="#BD5826"/>
<mask id="mask4_75_3014" style="mask-type:alpha" maskUnits="userSpaceOnUse" x="224" y="9" width="64" height="73">
<path d="M278.647 64.5426C270.948 74.8292 260.211 80.4742 246.436 81.4774C232.448 82.4962 223.11 64.257 224.91 45.531C225.769 36.5962 227.748 28.7096 235.616 20.5829C251.854 3.81024 267.11 6.02533 281.383 27.2282L287.545 43.671L278.647 64.5426Z" fill="white"/>
</mask>
<g mask="url(#mask4_75_3014)">
<path d="M278.647 64.5339C270.944 74.8205 260.203 80.4669 246.425 81.4732C232.434 82.4951 223.098 64.2612 224.903 45.5381C225.764 36.6047 227.746 28.719 235.617 20.592C251.863 3.81848 267.122 6.02966 281.393 27.2255L287.553 43.664L278.647 64.5339Z" fill="#CD7448"/>
<path d="M255.261 45.0235C253.803 43.0375 249.572 39.7552 244.307 42.5145" stroke="#37120C" stroke-opacity="0.25" stroke-width="2" stroke-linecap="round"/>
<path d="M229.067 41.7433C230.355 40.4991 233.261 39.367 236.856 42.5022" stroke="#37120C" stroke-opacity="0.25" stroke-width="2" stroke-linecap="round"/>
<path opacity="0.422879" d="M258.242 66.7403C253.662 66.4504 250.122 63.6693 250.335 60.5285C250.548 57.3877 254.434 55.0766 259.014 55.3665C263.594 55.6564 267.134 58.4375 266.921 61.5783C266.707 64.7191 262.822 67.0302 258.242 66.7403Z" fill="#A44616"/>
<path opacity="0.422879" d="M221.506 62.5249C216.968 61.7985 213.59 58.6777 213.963 55.5543C214.336 52.4309 218.318 50.4878 222.856 51.2142C227.395 51.9406 230.772 55.0614 230.4 58.1847C230.027 61.3081 226.045 63.2512 221.506 62.5249Z" fill="#A44616"/>
</g>
<path fill-rule="evenodd" clip-rule="evenodd" d="M247.803 66.9869C244.389 68.8243 240.129 68.4203 235.021 65.7749C237.877 72.0243 240.726 74.7281 243.566 73.8864C246.406 73.0446 247.818 70.7448 247.803 66.9869Z" fill="#A5330A"/>
<path d="M248.069 51.0775C247.133 51.1461 246.291 50.0887 246.188 48.7156C246.086 47.3425 246.763 46.1738 247.699 46.1052C248.636 46.0366 249.478 47.094 249.58 48.4671C249.682 49.8401 249.006 51.0089 248.069 51.0775Z" fill="#321907"/>
<path d="M233.423 49.7796C232.486 49.8482 231.644 48.7907 231.542 47.4176C231.44 46.0446 232.116 44.8758 233.053 44.8072C233.989 44.7386 234.831 45.796 234.934 47.1691C235.036 48.5422 234.36 49.7109 233.423 49.7796Z" fill="#321907"/>
<path d="M241.353 47.7651C238.427 52.4828 237.308 52.6254 234.457 54.6694C231.464 56.8152 233.96 63.7608 239.697 61.446" stroke="#8A3110" stroke-width="1.2" stroke-linecap="round" stroke-linejoin="round"/>
<path fill-rule="evenodd" clip-rule="evenodd" d="M247.427 37.4297C234.123 36.4377 228.697 35.9047 223.838 32.7237C222.576 15.8428 235.551 4.6668 241.844 2.58406C256.382 -2.38478 272.932 0.692487 284.016 12.8413C285.115 14.0458 286.056 15.2953 286.852 16.58C287.298 17.1713 287.746 17.8374 288.196 18.5819C296.008 35.881 301.624 61.6439 300.727 71.4565C296.348 78.2745 256.702 83.2415 260.961 74.8078C261.199 74.337 261.467 73.847 261.753 73.3256C263.777 69.6292 266.665 64.3567 265.625 53.1924C265.373 50.4888 264.306 47.3962 263.102 43.9089C262.695 42.7299 262.273 41.5057 261.861 40.2362C261.138 40.0546 260.448 39.8825 259.792 39.7189C256.869 38.99 254.631 38.4319 253.231 37.9699C251.699 37.4643 252.72 33.076 253.454 29.9257C254.094 27.1746 254.515 25.3676 252.823 27.9146C250.644 31.1954 249.922 33.6739 249.63 35.5919C249.465 36.6828 248.528 37.5118 247.427 37.4297Z" fill="#0A1551"/>
<path d="M233.336 201.991C242.302 196.949 282.584 208.277 313.276 197.034C330.103 190.87 317.226 154.971 310.21 124.867C305.771 108.206 298.421 97.1633 291.72 93.0789L277.145 103.804L280.856 123.782C280.856 123.782 278.55 131.035 283.409 144.213C288.267 157.391 295.817 173.961 295.817 173.961L223.592 189.113C223.851 195.087 226.163 206.025 233.336 201.991Z" fill="#E8EDFF"/>
</g>
<path fill-rule="evenodd" clip-rule="evenodd" d="M240.366 202.129C236.308 204.076 234.639 203.785 229.817 205.999C226.153 206.825 223.56 206.947 216.887 203.17C212.883 200.904 206.887 199.186 198.899 198.017L198.899 198.017C197.969 197.881 197.327 197.021 197.463 196.095C197.514 195.75 197.671 195.429 197.912 195.176C200.673 192.278 205.006 191.204 210.91 191.952C221.948 193.35 222.379 197.645 229.411 193.909C234.1 191.419 237.751 194.159 240.366 202.129Z" fill="#CD7448"/>
<path d="M235.066 207.05C244.032 202.008 284.314 213.336 315.006 202.093C331.833 195.929 318.956 160.03 311.94 129.926C307.501 113.265 300.151 102.222 293.45 98.1379L278.875 108.863L282.586 128.841C282.586 128.841 280.28 136.094 285.138 149.272C289.997 162.45 297.547 179.02 297.547 179.02L225.322 194.172C225.581 200.146 227.893 211.084 235.066 207.05Z" fill="url(#paint0_linear_75_3014)"/>
<defs>
<linearGradient id="paint0_linear_75_3014" x1="304.318" y1="112.582" x2="229.526" y2="206.975" gradientUnits="userSpaceOnUse">
<stop stop-color="#E8EDFF"/>
<stop offset="1" stop-color="#D2DAF7"/>
</linearGradient>
</defs>
</svg>
