<svg width="36" height="34" viewBox="0 0 36 34" fill="none" xmlns="http://www.w3.org/2000/svg">
<path d="M13.48 26.9073C13.8953 27.31 13.6018 27.9999 13.012 27.9999H9.32084C8.59258 27.9999 8 27.4254 8 26.7194V23.1411C8 22.5694 8.71165 22.2848 9.12701 22.6875L13.48 26.9073Z" fill="#A7AAAD"/>
<path d="M19.2496 27.1858C18.157 26.1003 18.157 24.3404 19.2496 23.2549L23.1928 19.3374C24.2854 18.252 26.0568 18.252 27.1494 19.3374C28.242 20.4229 28.242 22.1828 27.1494 23.2683L23.2063 27.1858C22.1137 28.2712 20.3422 28.2712 19.2496 27.1858Z" fill="#A7AAAD"/>
<path d="M8.83312 17.3423C7.74052 16.2568 7.74052 14.4969 8.83312 13.4114L15.4691 6.81411C16.5617 5.72863 18.3331 5.72863 19.4257 6.81411C20.5183 7.89958 20.5183 9.65948 19.4257 10.745L12.7898 17.3423C11.6972 18.4277 9.92571 18.4277 8.83312 17.3423Z" fill="#A7AAAD"/>
<path d="M14.2577 22.0443C13.1651 20.9588 13.1651 19.1989 14.2577 18.1135L23.224 9.20553C24.3166 8.12005 26.0881 8.12005 27.1807 9.20552C28.2733 10.291 28.2733 12.0509 27.1807 13.1364L18.2143 22.0443C17.1217 23.1298 15.3503 23.1298 14.2577 22.0443Z" fill="#A7AAAD"/>
</svg>